<svg xmlns="http://www.w3.org/2000/svg" data-name="Layer 1" viewBox="0 0 100 100">
	<path fill="white" d="M39.48,58.8a.75.75,0,0,0,.75-.75V54.12h3.93a.75.75,0,0,0,0-1.5H39.48a.75.75,0,0,0-.74.75v4.68A.75.75,0,0,0,39.48,58.8Z" />
	<path fill="white" d="M60.91,54.12h3.92v3.93a.75.75,0,0,0,1.5,0V53.37a.75.75,0,0,0-.75-.75H60.91a.75.75,0,0,0,0,1.5Z" />
	<path fill="white" d="M39.48,80.22h4.68a.75.75,0,0,0,0-1.5H40.23V74.8a.75.75,0,1,0-1.49,0v4.67A.74.74,0,0,0,39.48,80.22Z" />
	<path fill="white" d="M65.58,74.05a.75.75,0,0,0-.75.75v3.92H60.91a.75.75,0,0,0,0,1.5h4.67a.74.74,0,0,0,.75-.75V74.8A.74.74,0,0,0,65.58,74.05Z" />
	<path fill="white" d="M81.48,42.71h-63a3.83,3.83,0,0,0-3.82,3.83V86.31a3.82,3.82,0,0,0,3.82,3.82h63a3.82,3.82,0,0,0,3.82-3.82V46.54A3.83,3.83,0,0,0,81.48,42.71Zm2.32,43.6a2.33,2.33,0,0,1-2.32,2.33h-63a2.33,2.33,0,0,1-2.32-2.33V46.54a2.32,2.32,0,0,1,2.32-2.33h63a2.32,2.32,0,0,1,2.32,2.33Z" />
	<path fill="white" d="M79.63,47.92H25.43a.75.75,0,0,0-.75.74V84.18a.76.76,0,0,0,.75.75h54.2a.75.75,0,0,0,.75-.75V48.66A.74.74,0,0,0,79.63,47.92Zm-.75,35.51H26.18v-34h52.7Z" />
	<path fill="white" d="M20.44,62.56a.75.75,0,0,0-.75.74v6.24a.75.75,0,0,0,1.5,0V63.3A.75.75,0,0,0,20.44,62.56Z" />
	<path fill="white" d="M29.64,39h0a1,1,0,0,0,1-1V12.6a.74.74,0,0,1,.74-.74H58.52V20a2.73,2.73,0,0,0,2.73,2.73h8.11V38a1,1,0,1,0,2,0V21.7h0v-.1s0-.05,0-.08h0a.31.31,0,0,0,0-.08v0a.14.14,0,0,0,0-.06v0l0-.08h0a.25.25,0,0,0,0-.07v0a.21.21,0,0,1,0-.06l0,0L71.06,21,60.22,10.16l-.07-.06,0,0-.05,0h0L60,10h0l-.08,0h0l-.06,0h0l-.09,0H31.39a2.73,2.73,0,0,0-2.73,2.73V38A1,1,0,0,0,29.64,39ZM60.51,13.27,68,20.7h-6.7a.74.74,0,0,1-.74-.73Z" />
	<path fill="white" d="M62.09,27.16H37.91a.75.75,0,0,0,0,1.5H62.09a.75.75,0,0,0,0-1.5Z" />
	<path fill="white" d="M62.09,32.19H37.91a.75.75,0,1,0,0,1.49H62.09a.75.75,0,1,0,0-1.49Z" />
	<path fill="white" d="M62.09,37.21H37.91a.75.75,0,0,0,0,1.5H62.09a.75.75,0,0,0,0-1.5Z" />
</svg>